<svg display="none" xmlns="http://www.w3.org/2000/svg">
    <symbol id="logo"  viewBox="0 0 245 21" fill="none">
        <g>
            <path d="M0.689706 20.5V0.619999H5.28171V16.468H14.9137V20.5H0.689706ZM24.5188 20.668C23.0441 20.668 21.7001 20.3787 20.4868 19.8C19.2735 19.2213 18.2375 18.4653 17.3788 17.532C16.5201 16.58 15.8481 15.4973 15.3628 14.284C14.8961 13.0707 14.6628 11.82 14.6628 10.532C14.6628 9.22533 14.9055 7.96533 15.3908 6.752C15.8948 5.53867 16.5855 4.47467 17.4628 3.56C18.3588 2.62667 19.4135 1.88933 20.6268 1.348C21.8401 0.787999 23.1655 0.507999 24.6028 0.507999C26.0775 0.507999 27.4215 0.797332 28.6348 1.376C29.8481 1.95467 30.8841 2.72 31.7428 3.672C32.6015 4.624 33.2641 5.70667 33.7308 6.92C34.1975 8.13333 34.4308 9.36533 34.4308 10.616C34.4308 11.9227 34.1788 13.1827 33.6748 14.396C33.1895 15.6093 32.5081 16.6827 31.6308 17.616C30.7535 18.5307 29.7081 19.268 28.4948 19.828C27.2815 20.388 25.9561 20.668 24.5188 20.668ZM19.3388 10.588C19.3388 11.3533 19.4508 12.1 19.6748 12.828C19.8988 13.5373 20.2255 14.172 20.6548 14.732C21.1028 15.292 21.6535 15.74 22.3068 16.076C22.9601 16.412 23.7068 16.58 24.5468 16.58C25.4241 16.58 26.1895 16.4027 26.8428 16.048C27.4961 15.6933 28.0375 15.236 28.4668 14.676C28.8961 14.0973 29.2135 13.4533 29.4188 12.744C29.6428 12.016 29.7548 11.2787 29.7548 10.532C29.7548 9.76667 29.6428 9.02933 29.4188 8.32C29.1948 7.592 28.8588 6.95733 28.4108 6.416C27.9628 5.856 27.4121 5.41733 26.7588 5.1C26.1241 4.764 25.3868 4.596 24.5468 4.596C23.6695 4.596 22.9041 4.77333 22.2508 5.128C21.6161 5.464 21.0748 5.912 20.6268 6.472C20.1975 7.032 19.8708 7.676 19.6468 8.404C19.4415 9.11333 19.3388 9.84133 19.3388 10.588ZM37.0842 20.5V0.619999H46.0442C46.9776 0.619999 47.8362 0.815999 48.6202 1.208C49.4229 1.6 50.1136 2.11333 50.6922 2.748C51.2709 3.38267 51.7189 4.10133 52.0362 4.904C52.3722 5.70667 52.5402 6.51867 52.5402 7.34C52.5402 7.956 52.4656 8.55333 52.3162 9.132C52.1669 9.692 51.9522 10.224 51.6722 10.728C51.3922 11.232 51.0469 11.6893 50.6362 12.1C50.2442 12.492 49.7962 12.828 49.2922 13.108L53.6602 20.5H48.4802L44.6722 14.088H41.6762V20.5H37.0842ZM41.6762 10.084H45.8762C46.4176 10.084 46.8842 9.832 47.2762 9.328C47.6682 8.80533 47.8642 8.14267 47.8642 7.34C47.8642 6.51867 47.6402 5.86533 47.1922 5.38C46.7442 4.89467 46.2589 4.652 45.7362 4.652H41.6762V10.084ZM69.8141 16.468V20.5H55.842V0.619999H69.5621V4.652H60.434V8.516H68.274V12.24H60.434V16.468H69.8141ZM88.2838 20.5V8.6L83.9718 17.252H81.5078L77.1958 8.6V20.5H72.6038V0.619999H77.5878L82.7398 11.008L87.9198 0.619999H92.8758V20.5H88.2838ZM96.6936 20.5V0.619999H101.286V20.5H96.6936ZM105.088 20.5V0.619999H113.572C114.524 0.619999 115.392 0.815999 116.176 1.208C116.979 1.6 117.66 2.11333 118.22 2.748C118.799 3.38267 119.247 4.10133 119.564 4.904C119.9 5.70667 120.068 6.51867 120.068 7.34C120.068 8.21733 119.909 9.05733 119.592 9.86C119.293 10.6627 118.864 11.3813 118.304 12.016C117.763 12.6507 117.1 13.1547 116.316 13.528C115.532 13.9013 114.664 14.088 113.712 14.088H109.68V20.5H105.088ZM109.68 10.084H113.432C113.973 10.084 114.44 9.85067 114.832 9.384C115.224 8.91733 115.42 8.236 115.42 7.34C115.42 6.87333 115.355 6.472 115.224 6.136C115.112 5.8 114.953 5.52 114.748 5.296C114.543 5.072 114.309 4.91333 114.048 4.82C113.787 4.708 113.525 4.652 113.264 4.652H109.68V10.084ZM134.461 6.444C134.405 6.36933 134.209 6.22933 133.873 6.024C133.537 5.81867 133.117 5.604 132.613 5.38C132.109 5.156 131.559 4.96 130.961 4.792C130.364 4.624 129.767 4.54 129.169 4.54C127.527 4.54 126.705 5.09067 126.705 6.192C126.705 6.528 126.789 6.808 126.957 7.032C127.144 7.256 127.405 7.46133 127.741 7.648C128.096 7.816 128.535 7.97467 129.057 8.124C129.58 8.27333 130.187 8.44133 130.877 8.628C131.829 8.88933 132.688 9.17867 133.453 9.496C134.219 9.79467 134.863 10.1773 135.385 10.644C135.927 11.092 136.337 11.6427 136.617 12.296C136.916 12.9493 137.065 13.7333 137.065 14.648C137.065 15.768 136.851 16.72 136.421 17.504C136.011 18.2693 135.46 18.8947 134.769 19.38C134.079 19.8467 133.285 20.192 132.389 20.416C131.493 20.6213 130.569 20.724 129.617 20.724C128.889 20.724 128.143 20.668 127.377 20.556C126.612 20.444 125.865 20.2853 125.137 20.08C124.409 19.856 123.7 19.5947 123.009 19.296C122.337 18.9973 121.712 18.652 121.133 18.26L123.149 14.256C123.224 14.3493 123.467 14.5267 123.877 14.788C124.288 15.0493 124.792 15.3107 125.389 15.572C126.005 15.8333 126.687 16.0667 127.433 16.272C128.18 16.4773 128.936 16.58 129.701 16.58C131.325 16.58 132.137 16.0853 132.137 15.096C132.137 14.7227 132.016 14.4147 131.773 14.172C131.531 13.9293 131.195 13.7147 130.765 13.528C130.336 13.3227 129.823 13.136 129.225 12.968C128.647 12.8 128.012 12.6133 127.321 12.408C126.407 12.128 125.613 11.8293 124.941 11.512C124.269 11.176 123.709 10.7933 123.261 10.364C122.832 9.93467 122.505 9.44 122.281 8.88C122.076 8.32 121.973 7.66667 121.973 6.92C121.973 5.87467 122.169 4.95067 122.561 4.148C122.953 3.34533 123.485 2.67333 124.157 2.132C124.829 1.572 125.604 1.152 126.481 0.871999C127.377 0.591999 128.32 0.451999 129.309 0.451999C130 0.451999 130.681 0.517332 131.353 0.647999C132.025 0.778666 132.669 0.946666 133.285 1.152C133.901 1.35733 134.471 1.59067 134.993 1.852C135.535 2.11333 136.029 2.37467 136.477 2.636L134.461 6.444ZM148.3 16.58C149.084 16.58 149.747 16.4213 150.288 16.104C150.829 15.768 151.268 15.3293 151.604 14.788C151.94 14.2467 152.173 13.6307 152.304 12.94C152.453 12.2307 152.528 11.512 152.528 10.784V0.619999H157.12V10.784C157.12 12.1653 156.943 13.4533 156.588 14.648C156.252 15.8427 155.72 16.888 154.992 17.784C154.283 18.68 153.368 19.3893 152.248 19.912C151.147 20.416 149.831 20.668 148.3 20.668C146.713 20.668 145.36 20.3973 144.24 19.856C143.12 19.3147 142.205 18.596 141.496 17.7C140.805 16.7853 140.292 15.7307 139.956 14.536C139.639 13.3413 139.48 12.0907 139.48 10.784V0.619999H144.072V10.784C144.072 11.5493 144.147 12.2773 144.296 12.968C144.445 13.6587 144.688 14.2747 145.024 14.816C145.36 15.3573 145.789 15.7867 146.312 16.104C146.853 16.4213 147.516 16.58 148.3 16.58ZM176.358 20.5V8.6L172.046 17.252H169.582L165.27 8.6V20.5H160.678V0.619999H165.662L170.814 11.008L175.994 0.619999H180.95V20.5H176.358ZM184.376 20.5V15.936H188.044V20.5H184.376Z" fill="white"/>
            <path d="M196.059 9.132V20.5H191.467V0.619999H195.051L204.319 12.296V0.619999H208.911V20.5H205.215L196.059 9.132ZM226.685 16.468V20.5H212.713V0.619999H226.433V4.652H217.305V8.516H225.145V12.24H217.305V16.468H226.685ZM244.623 4.652H238.575V20.5H233.983V4.652H227.907V0.619999H244.623V4.652Z" fill="#42A9ED"/>
        </g>
    </symbol>

    <symbol id="glass"  viewBox="0 0 55 55" fill="none">
        <g>
            <path d="M33.9286 24.9286C33.9286 29.8906 29.8906 33.9286 24.9286 33.9286C19.9665 33.9286 15.9286 29.8906 15.9286 24.9286C15.9286 19.9665 19.9665 15.9286 24.9286 15.9286C29.8906 15.9286 33.9286 19.9665 33.9286 24.9286ZM44.2143 41.6429C44.2143 40.9598 43.933 40.2969 43.471 39.8348L36.5803 32.9442C38.2076 30.5937 39.0714 27.7812 39.0714 24.9286C39.0714 17.1138 32.7433 10.7857 24.9286 10.7857C17.1138 10.7857 10.7857 17.1138 10.7857 24.9286C10.7857 32.7433 17.1138 39.0714 24.9286 39.0714C27.7812 39.0714 30.5937 38.2076 32.9442 36.5803L39.8348 43.4509C40.2969 43.933 40.9598 44.2143 41.6429 44.2143C43.0491 44.2143 44.2143 43.0491 44.2143 41.6429Z" fill="white"/>
        </g>
    </symbol>
    <symbol id="percent" viewBox="0 0 55 56">
        <g>
            <path d="M37.7857 35.9643C37.7857 37.3705 36.6205 38.5357 35.2143 38.5357C33.808 38.5357 32.6429 37.3705 32.6429 35.9643C32.6429 34.558 33.808 33.3928 35.2143 33.3928C36.6205 33.3928 37.7857 34.558 37.7857 35.9643ZM22.3571 20.5357C22.3571 21.9419 21.192 23.1071 19.7857 23.1071C18.3795 23.1071 17.2143 21.9419 17.2143 20.5357C17.2143 19.1294 18.3795 17.9643 19.7857 17.9643C21.192 17.9643 22.3571 19.1294 22.3571 20.5357ZM42.9286 35.9643C42.9286 31.7053 39.4732 28.25 35.2143 28.25C30.9554 28.25 27.5 31.7053 27.5 35.9643C27.5 40.2232 30.9554 43.6786 35.2143 43.6786C39.4732 43.6786 42.9286 40.2232 42.9286 35.9643ZM41 14.1071C41 13.404 40.4174 12.8214 39.7143 12.8214H36.5C36.0982 12.8214 35.7165 13.0223 35.4754 13.3437L14.2612 41.6294C14.1004 41.8504 14 42.1116 14 42.3928C14 43.096 14.5826 43.6786 15.2857 43.6786H18.5C18.9018 43.6786 19.2835 43.4777 19.5246 43.1562L40.7388 14.8705C40.8996 14.6495 41 14.3884 41 14.1071ZM27.5 20.5357C27.5 16.2768 24.0446 12.8214 19.7857 12.8214C15.5268 12.8214 12.0714 16.2768 12.0714 20.5357C12.0714 24.7946 15.5268 28.25 19.7857 28.25C24.0446 28.25 27.5 24.7946 27.5 20.5357Z" fill="white"/>
        </g>
    </symbol>

    <symbol id="file" viewBox="0 0 55 56">
        <g>
            <path d="M23.9932 29.3724V28.0867C23.9932 27.7251 24.2745 27.4439 24.6361 27.4439H38.7789C39.1405 27.4439 39.4218 27.7251 39.4218 28.0867V29.3724C39.4218 29.734 39.1405 30.0153 38.7789 30.0153H24.6361C24.2745 30.0153 23.9932 29.734 23.9932 29.3724Z" fill="white"/>
            <path d="M24.6361 32.5867H38.7789C39.1405 32.5867 39.4218 32.868 39.4218 33.2296V34.5153C39.4218 34.8769 39.1405 35.1581 38.7789 35.1581H24.6361C24.2745 35.1581 23.9932 34.8769 23.9932 34.5153V33.2296C23.9932 32.868 24.2745 32.5867 24.6361 32.5867Z" fill="white"/>
            <path d="M24.6361 37.7296H38.7789C39.1405 37.7296 39.4218 38.0108 39.4218 38.3724V39.6581C39.4218 40.0198 39.1405 40.301 38.7789 40.301H24.6361C24.2745 40.301 23.9932 40.0198 23.9932 39.6581V38.3724C23.9932 38.0108 24.2745 37.7296 24.6361 37.7296Z" fill="white"/>
            <path fill-rule="evenodd" clip-rule="evenodd" d="M16.2789 21.3148C12.1837 21.3148 8.86392 17.995 8.86392 13.8998C8.86392 9.80461 12.1837 6.4848 16.2789 6.4848C19.7229 6.4848 22.6185 8.83277 23.4523 12.0153H36.2075C37.2722 12.0153 38.7588 12.6381 39.5021 13.3814L45.77 19.6492C46.5133 20.3925 47.1361 21.8791 47.1361 22.9439V46.0867C47.1361 47.1515 46.2722 48.0153 45.2075 48.0153H18.2075C17.1428 48.0153 16.2789 47.1515 16.2789 46.0867L16.2789 21.3148ZM18.8504 20.8568C21.4729 19.8871 23.397 17.477 23.6625 14.5867H34.2789V22.9439C34.2789 24.0086 35.1428 24.8724 36.2075 24.8724H44.5646V45.4439H18.8504V20.8568ZM37.674 15.1894C37.5334 15.0488 37.1919 14.868 36.8504 14.7474V22.301H44.4039C44.2834 21.9595 44.1026 21.618 43.962 21.4773L37.674 15.1894ZM17.2789 14.8998H21.2789V12.8998H17.2789V8.89984H15.2789V12.8998H11.2789V14.8998H15.2789V18.8998H17.2789V14.8998Z" fill="white"/>
        </g>
    </symbol>

    <symbol id="s-mail" viewBox="0 0 56 56">
        <g>
            <path d="M44.7952 39.1071C44.7952 39.4487 44.4938 39.75 44.1523 39.75H14.5809C14.2393 39.75 13.938 39.4487 13.938 39.1071V23.6786C14.3599 24.1607 14.8219 24.6027 15.3242 25.0045C18.1969 27.2143 21.0898 29.4643 23.8822 31.7946C25.3889 33.0603 27.2572 34.6071 29.3465 34.6071H29.3666H29.3867C31.476 34.6071 33.3443 33.0603 34.851 31.7946C37.6434 29.4643 40.5362 27.2143 43.409 25.0045C43.9112 24.6027 44.3733 24.1607 44.7952 23.6786V39.1071ZM44.7952 17.9933C44.7952 19.7009 43.1478 21.9308 41.842 22.9553C39.1501 25.0647 36.4581 27.1942 33.7862 29.3237C32.7215 30.1875 30.7929 32.0357 29.3867 32.0357H29.3666H29.3465C27.9402 32.0357 26.0117 30.1875 24.9469 29.3237C22.2751 27.1942 19.5831 25.0647 16.8911 22.9553C15.0831 21.529 13.938 19.5402 13.938 17.25C13.938 16.9085 14.2393 16.6071 14.5809 16.6071H44.1523C44.9157 16.6071 44.7952 17.4911 44.7952 17.9933ZM47.3666 17.25C47.3666 15.4821 45.9202 14.0357 44.1523 14.0357H14.5809C12.813 14.0357 11.3666 15.4821 11.3666 17.25V39.1071C11.3666 40.875 12.813 42.3214 14.5809 42.3214H44.1523C45.9202 42.3214 47.3666 40.875 47.3666 39.1071V17.25Z" fill="white"/>
        </g>
    </symbol>

    <symbol id="bill" viewBox="0 0 56 56">
        <g>
            <path d="M24.7287 32.5357V30.6071H27.3002V24.8214H27.26C26.9386 25.3237 26.6372 25.5446 26.1551 25.9665L24.6082 24.3594L27.5814 21.6071H29.8716V30.6071H32.443V32.5357H24.7287ZM35.0145 27.3928C35.0145 23.7366 32.8046 19.0357 28.5859 19.0357C24.3671 19.0357 22.1573 23.7366 22.1573 27.3928C22.1573 31.0491 24.3671 35.75 28.5859 35.75C32.8046 35.75 35.0145 31.0491 35.0145 27.3928ZM45.3002 32.5357C42.4676 32.5357 40.1573 34.846 40.1573 37.6786H17.0145C17.0145 34.846 14.7042 32.5357 11.8716 32.5357V22.25C14.7042 22.25 17.0145 19.9397 17.0145 17.1071H40.1573C40.1573 19.9397 42.4676 22.25 45.3002 22.25V32.5357ZM47.8716 15.8214C47.8716 15.1183 47.289 14.5357 46.5859 14.5357H10.5859C9.88276 14.5357 9.30017 15.1183 9.30017 15.8214V38.9643C9.30017 39.6674 9.88276 40.25 10.5859 40.25H46.5859C47.289 40.25 47.8716 39.6674 47.8716 38.9643V15.8214Z" fill="white"/>
        </g>
    </symbol>

    <symbol id="mail" viewBox="0 0 21 20">
        <g>
            <path d="M16.7503 14.8491C16.7503 14.9914 16.6248 15.117 16.4825 15.117H4.16106C4.01876 15.117 3.89321 14.9914 3.89321 14.8491V8.42057C4.06899 8.62146 4.26151 8.80561 4.47077 8.97302C5.66776 9.89378 6.87312 10.8313 8.03662 11.8023C8.66441 12.3296 9.44287 12.9741 10.3134 12.9741H10.3218H10.3301C11.2007 12.9741 11.9791 12.3296 12.6069 11.8023C13.7704 10.8313 14.9758 9.89378 16.1728 8.97302C16.382 8.80561 16.5746 8.62146 16.7503 8.42057V14.8491ZM16.7503 6.05171C16.7503 6.7632 16.064 7.69233 15.5199 8.11923C14.3982 8.99813 13.2766 9.88541 12.1633 10.7727C11.7197 11.1326 10.9161 11.9027 10.3301 11.9027H10.3218H10.3134C9.72747 11.9027 8.9239 11.1326 8.48026 10.7727C7.36698 9.88541 6.24533 8.99813 5.12367 8.11923C4.37033 7.52492 3.89321 6.69624 3.89321 5.742C3.89321 5.5997 4.01876 5.47414 4.16106 5.47414H16.4825C16.8006 5.47414 16.7503 5.84244 16.7503 6.05171ZM17.8218 5.742C17.8218 5.00539 17.2191 4.40271 16.4825 4.40271H4.16106C3.42446 4.40271 2.82178 5.00539 2.82178 5.742V14.8491C2.82178 15.5857 3.42446 16.1884 4.16106 16.1884H16.4825C17.2191 16.1884 17.8218 15.5857 17.8218 14.8491V5.742Z" fill="#3E9CDC"/>
        </g>
    </symbol>


    <symbol id="vk" viewBox="0 0 21 20">
        <g>
            <path d="M15.1804 12.2863C15.1804 12.9366 15.0574 13.5079 14.8113 14.0001C14.5652 14.4923 14.2341 14.8995 13.8181 15.2218C13.3259 15.6085 12.7839 15.8839 12.1921 16.048C11.6062 16.212 10.8591 16.2941 9.95093 16.2941H4.71265V3.20715H9.33569C10.2966 3.20715 11.0232 3.24524 11.5154 3.32141C12.0134 3.39172 12.4792 3.54407 12.9128 3.77844C13.3816 4.0304 13.7302 4.36731 13.9587 4.78918C14.1931 5.21106 14.3103 5.69739 14.3103 6.24817C14.3103 6.88684 14.1492 7.4552 13.8269 7.95325C13.5105 8.45129 13.071 8.8175 12.5085 9.05188V9.12219C13.3171 9.29211 13.9646 9.64075 14.4509 10.1681C14.9373 10.6896 15.1804 11.3956 15.1804 12.2863ZM10.9705 6.90735C10.9705 6.69641 10.9148 6.47961 10.8035 6.25696C10.698 6.0343 10.531 5.87317 10.3025 5.77356C10.0857 5.67981 9.82788 5.63 9.52905 5.62415C9.23608 5.61243 8.79663 5.60657 8.21069 5.60657H7.98218V8.37512H8.39526C8.95776 8.37512 9.35034 8.36926 9.573 8.35754C9.80151 8.34583 10.0359 8.2843 10.2761 8.17297C10.5398 8.04993 10.7214 7.88 10.821 7.66321C10.9207 7.44641 10.9705 7.19446 10.9705 6.90735ZM11.7966 12.2247C11.7966 11.8204 11.7146 11.504 11.5505 11.2755C11.3865 11.047 11.1404 10.8741 10.8123 10.757C10.613 10.6808 10.3376 10.6398 9.98608 10.6339C9.64038 10.6222 9.17456 10.6163 8.58862 10.6163H7.98218V13.8947H8.15796C9.01343 13.8947 9.60522 13.8888 9.93335 13.8771C10.2615 13.8654 10.5955 13.7863 10.9353 13.6398C11.2341 13.5109 11.4509 13.3234 11.5857 13.0773C11.7263 12.8253 11.7966 12.5411 11.7966 12.2247Z" fill="#3E9CDC"/>
        </g>
    </symbol>

    <symbol id="file-icon" viewBox="0 0 18 21">
        <g>
            <path d="M16.8125 4.60899L13.3304 1.12685C12.9174 0.713902 12.0915 0.36792 11.5 0.36792H1.50002C0.9085 0.36792 0.428589 0.847831 0.428589 1.43935V19.2965C0.428589 19.888 0.9085 20.3679 1.50002 20.3679H16.5C17.0915 20.3679 17.5714 19.888 17.5714 19.2965V6.43935C17.5714 5.84783 17.2255 5.02194 16.8125 4.60899ZM11.8572 1.88578C12.0469 1.95274 12.2366 2.05319 12.3148 2.13131L15.8081 5.62462C15.8862 5.70274 15.9866 5.89247 16.0536 6.08221H11.8572V1.88578ZM16.1429 18.9394H1.85716V1.79649H10.4286V6.43935C10.4286 7.03087 10.9085 7.51078 11.5 7.51078H16.1429V18.9394ZM4.7143 9.29649V10.0108C4.7143 10.2117 4.87055 10.3679 5.07145 10.3679H12.9286C13.1295 10.3679 13.2857 10.2117 13.2857 10.0108V9.29649C13.2857 9.0956 13.1295 8.93935 12.9286 8.93935H5.07145C4.87055 8.93935 4.7143 9.0956 4.7143 9.29649ZM12.9286 11.7965H5.07145C4.87055 11.7965 4.7143 11.9527 4.7143 12.1536V12.8679C4.7143 13.0688 4.87055 13.2251 5.07145 13.2251H12.9286C13.1295 13.2251 13.2857 13.0688 13.2857 12.8679V12.1536C13.2857 11.9527 13.1295 11.7965 12.9286 11.7965ZM12.9286 14.6536H5.07145C4.87055 14.6536 4.7143 14.8099 4.7143 15.0108V15.7251C4.7143 15.926 4.87055 16.0822 5.07145 16.0822H12.9286C13.1295 16.0822 13.2857 15.926 13.2857 15.7251V15.0108C13.2857 14.8099 13.1295 14.6536 12.9286 14.6536Z" fill="#272733"/>
        </g>
    </symbol>

    <symbol id="qiwi" viewBox="0 0 100 20">
        <g>
            <g clip-path="url(#clip0_4_198)">
                <g clip-path="url(#clip1_4_198)">
                    <path d="M16.9118 13.4559C16.9719 13.8435 16.845 14.0076 16.7167 14.0076C16.5885 14.0076 16.4028 13.85 16.1957 13.5373C15.9887 13.2245 15.9179 12.8769 16.0181 12.6986C16.0558 12.6368 16.1167 12.5915 16.1881 12.572C16.2595 12.5525 16.3359 12.5604 16.4015 12.5939C16.7421 12.718 16.8757 13.2233 16.9118 13.4559ZM15.0241 14.3061C15.4343 14.6408 15.5585 15.0389 15.3421 15.3193C15.2762 15.3977 15.1922 15.46 15.0968 15.5013C15.0014 15.5426 14.8974 15.5617 14.793 15.557C14.5642 15.5574 14.3425 15.4801 14.1665 15.3386C13.7951 15.0246 13.6856 14.5142 13.9287 14.2247C13.9824 14.1653 14.0494 14.1186 14.1247 14.0881C14.2 14.0577 14.2814 14.0443 14.3629 14.049C14.6077 14.0569 14.8418 14.1479 15.0241 14.3061ZM14.3402 17.5367C16.1022 17.5367 18.0139 18.1208 20.1313 19.9351C20.3424 20.1161 20.6243 19.8912 20.4399 19.6651C18.3599 17.1258 16.4322 16.6412 14.5178 16.2329C12.172 15.7315 10.9643 14.4535 10.1187 13.0514C9.95167 12.7723 9.87552 12.8214 9.86083 13.1806C9.84679 13.7131 9.88841 14.2456 9.98507 14.7701C9.89022 14.7701 9.79403 14.7701 9.69918 14.7701C8.49698 14.7701 7.32179 14.4252 6.3222 13.7792C5.3226 13.1331 4.54352 12.2148 4.08346 11.1404C3.6234 10.0661 3.50302 8.88385 3.73756 7.7433C3.9721 6.60275 4.55101 5.55509 5.40109 4.7328C6.25117 3.91051 7.33424 3.35053 8.51334 3.12366C9.69244 2.89679 10.9146 3.01322 12.0253 3.45824C13.136 3.90326 14.0853 4.65688 14.7532 5.62379C15.4211 6.5907 15.7776 7.72748 15.7776 8.89037C15.7782 9.11877 15.7653 9.347 15.7389 9.57397C15.0985 9.49597 14.4514 9.48427 13.8085 9.53908C13.5773 9.55846 13.6107 9.6683 13.7844 9.69285C15.7883 10.043 17.175 11.2435 17.4902 13.4339C17.4914 13.445 17.4961 13.4555 17.5037 13.4638C17.5114 13.4721 17.5215 13.478 17.5328 13.4804C17.544 13.4828 17.5558 13.4818 17.5664 13.4774C17.577 13.473 17.5859 13.4654 17.5918 13.4559C18.6342 11.7703 19.0706 9.79838 18.8329 7.84774C18.5952 5.89709 17.6968 4.07738 16.2778 2.67245C14.8588 1.26752 12.999 0.356356 10.9885 0.0810911C8.97799 -0.194174 6.92984 0.181935 5.1635 1.15075C3.39717 2.11957 2.01197 3.62662 1.22396 5.43683C0.435958 7.24704 0.289461 9.25863 0.807322 11.1578C1.32518 13.057 2.47828 14.737 4.08676 15.9358C5.69524 17.1346 7.66865 17.7848 9.69918 17.7849C11.0418 17.7887 12.379 17.5355 14.3402 17.5355V17.5367Z" fill="#3E9CDC"/>
                </g>
            </g>
            <path d="M32.4044 10.346C32.4044 10.918 32.4824 11.4315 32.6384 11.8865C32.7944 12.3372 33.0154 12.7207 33.3014 13.037C33.5918 13.349 33.9406 13.5895 34.3479 13.7585C34.7553 13.9232 35.2081 14.0055 35.7064 14.0055C36.2091 14.0055 36.6641 13.9232 37.0714 13.7585C37.4788 13.5895 37.8254 13.349 38.1114 13.037C38.3974 12.7207 38.6184 12.3372 38.7744 11.8865C38.9304 11.4315 39.0084 10.918 39.0084 10.346C39.0084 9.774 38.9304 9.2605 38.7744 8.8055C38.6184 8.3505 38.3974 7.967 38.1114 7.655C37.8254 7.33867 37.4788 7.096 37.0714 6.927C36.6641 6.758 36.2091 6.6735 35.7064 6.6735C35.2081 6.6735 34.7553 6.758 34.3479 6.927C33.9406 7.096 33.5918 7.33867 33.3014 7.655C33.0154 7.967 32.7944 8.3505 32.6384 8.8055C32.4824 9.2605 32.4044 9.774 32.4044 10.346ZM40.7309 16.924H39.6909C39.5349 16.924 39.3963 16.9023 39.2749 16.859C39.1536 16.8157 39.0431 16.7398 38.9434 16.6315L37.3119 14.8505C36.8179 15.0152 36.2828 15.0975 35.7064 15.0975C35.0218 15.0975 34.3978 14.9827 33.8344 14.753C33.2711 14.519 32.7879 14.1918 32.3849 13.7715C31.9819 13.3512 31.6699 12.8507 31.4489 12.27C31.2279 11.685 31.1174 11.0437 31.1174 10.346C31.1174 9.64833 31.2279 9.00917 31.4489 8.4285C31.6699 7.8435 31.9819 7.34083 32.3849 6.9205C32.7879 6.49583 33.2711 6.1665 33.8344 5.9325C34.3978 5.6985 35.0218 5.5815 35.7064 5.5815C36.3911 5.5815 37.0151 5.6985 37.5784 5.9325C38.1461 6.1665 38.6314 6.49583 39.0344 6.9205C39.4374 7.34083 39.7494 7.8435 39.9704 8.4285C40.1914 9.00917 40.3019 9.64833 40.3019 10.346C40.3019 10.7837 40.2564 11.1997 40.1654 11.594C40.0788 11.9883 39.9509 12.3567 39.7819 12.699C39.6129 13.037 39.4071 13.3447 39.1644 13.622C38.9218 13.8993 38.6488 14.1398 38.3454 14.3435L40.7309 16.924ZM43.3606 15H42.0996V5.6855H43.3606V15ZM57.8137 5.6855L54.9082 15H53.7772L51.4176 7.8955C51.396 7.82617 51.3743 7.7525 51.3526 7.6745C51.3353 7.5965 51.3158 7.51417 51.2942 7.4275C51.2725 7.51417 51.2508 7.5965 51.2292 7.6745C51.2075 7.7525 51.1858 7.82617 51.1642 7.8955L48.7916 15H47.6606L44.7551 5.6855H45.8016C45.9143 5.6855 46.0075 5.71367 46.0811 5.77C46.1592 5.82633 46.209 5.89783 46.2307 5.9845L48.1547 12.4585C48.185 12.5755 48.2132 12.7012 48.2392 12.8355C48.2695 12.9698 48.2976 13.1128 48.3237 13.2645C48.354 13.1128 48.3843 12.9698 48.4147 12.8355C48.4493 12.6968 48.4862 12.5712 48.5251 12.4585L50.7157 5.9845C50.7417 5.91083 50.7915 5.84367 50.8652 5.783C50.9432 5.718 51.0363 5.6855 51.1447 5.6855H51.5087C51.6213 5.6855 51.7123 5.71367 51.7817 5.77C51.851 5.82633 51.903 5.89783 51.9377 5.9845L54.1217 12.4585C54.1607 12.5712 54.1953 12.6925 54.2257 12.8225C54.2603 12.9525 54.2928 13.089 54.3232 13.232C54.3448 13.089 54.3687 12.9525 54.3947 12.8225C54.4207 12.6925 54.4488 12.5712 54.4792 12.4585L56.4097 5.9845C56.4313 5.9065 56.479 5.83717 56.5527 5.7765C56.6307 5.71583 56.7238 5.6855 56.8322 5.6855H57.8137ZM60.4612 15H59.2002V5.6855H60.4612V15ZM74.9774 8.4155L72.8454 15H71.9289C71.8162 15 71.7382 14.9263 71.6949 14.779L70.2389 10.3135C70.2042 10.2138 70.1761 10.1142 70.1544 10.0145C70.1327 9.9105 70.1111 9.80867 70.0894 9.709C70.0677 9.80867 70.0461 9.9105 70.0244 10.0145C70.0027 10.1142 69.9746 10.216 69.9399 10.32L68.4579 14.779C68.4189 14.9263 68.3322 15 68.1979 15H67.3269L65.1949 8.4155H66.1049C66.1959 8.4155 66.2717 8.43933 66.3324 8.487C66.3974 8.53467 66.4407 8.591 66.4624 8.656L67.7234 12.894C67.7971 13.206 67.8556 13.5007 67.8989 13.778C67.9379 13.635 67.9769 13.4898 68.0159 13.3425C68.0592 13.1952 68.1047 13.0457 68.1524 12.894L69.5434 8.63C69.5651 8.565 69.6019 8.51083 69.6539 8.4675C69.7102 8.42417 69.7774 8.4025 69.8554 8.4025H70.3624C70.4491 8.4025 70.5206 8.42417 70.5769 8.4675C70.6332 8.51083 70.6722 8.565 70.6939 8.63L72.0524 12.894C72.1001 13.0457 72.1434 13.1952 72.1824 13.3425C72.2214 13.4898 72.2582 13.635 72.2929 13.778C72.3146 13.635 72.3406 13.492 72.3709 13.349C72.4056 13.2017 72.4424 13.05 72.4814 12.894L73.7684 8.656C73.7901 8.58667 73.8312 8.53033 73.8919 8.487C73.9526 8.43933 74.0241 8.4155 74.1064 8.4155H74.9774ZM79.5963 12.036C79.0633 12.0533 78.6083 12.0967 78.2313 12.166C77.8586 12.231 77.5531 12.3177 77.3148 12.426C77.0808 12.5343 76.9096 12.6622 76.8013 12.8095C76.6973 12.9568 76.6453 13.1215 76.6453 13.3035C76.6453 13.4768 76.6734 13.6263 76.7298 13.752C76.7861 13.8777 76.8619 13.9817 76.9573 14.064C77.0569 14.142 77.1718 14.2005 77.3018 14.2395C77.4361 14.2742 77.5791 14.2915 77.7308 14.2915C77.9344 14.2915 78.1208 14.272 78.2898 14.233C78.4588 14.1897 78.6169 14.129 78.7643 14.051C78.9159 13.973 79.0589 13.8798 79.1933 13.7715C79.3319 13.6632 79.4663 13.5397 79.5963 13.401V12.036ZM75.8588 9.345C76.2228 8.994 76.6149 8.73183 77.0353 8.5585C77.4556 8.38517 77.9214 8.2985 78.4328 8.2985C78.8011 8.2985 79.1283 8.35917 79.4143 8.4805C79.7003 8.60183 79.9408 8.77083 80.1358 8.9875C80.3308 9.20417 80.4781 9.46633 80.5778 9.774C80.6774 10.0817 80.7273 10.4197 80.7273 10.788V15H80.2138C80.1011 15 80.0144 14.9827 79.9538 14.948C79.8931 14.909 79.8454 14.8353 79.8108 14.727L79.6808 14.103C79.5074 14.2633 79.3384 14.4063 79.1738 14.532C79.0091 14.6533 78.8358 14.7573 78.6538 14.844C78.4718 14.9263 78.2768 14.9892 78.0688 15.0325C77.8651 15.0802 77.6376 15.104 77.3863 15.104C77.1306 15.104 76.8901 15.0693 76.6648 15C76.4394 14.9263 76.2423 14.818 76.0733 14.675C75.9086 14.532 75.7764 14.3522 75.6768 14.1355C75.5814 13.9145 75.5338 13.6545 75.5338 13.3555C75.5338 13.0955 75.6053 12.8463 75.7483 12.608C75.8913 12.3653 76.1231 12.1508 76.4438 11.9645C76.7644 11.7782 77.1826 11.6265 77.6983 11.5095C78.2139 11.3882 78.8466 11.3188 79.5963 11.3015V10.788C79.5963 10.2767 79.4858 9.891 79.2648 9.631C79.0438 9.36667 78.7209 9.2345 78.2963 9.2345C78.0103 9.2345 77.7698 9.27133 77.5748 9.345C77.3841 9.41433 77.2173 9.4945 77.0743 9.5855C76.9356 9.67217 76.8143 9.75233 76.7103 9.826C76.6106 9.89533 76.5109 9.93 76.4113 9.93C76.3333 9.93 76.2661 9.9105 76.2098 9.8715C76.1534 9.82817 76.1058 9.77617 76.0668 9.7155L75.8588 9.345ZM83.6857 5.4255V15H82.5287V5.4255H83.6857ZM86.7579 5.4255V15H85.6009V5.4255H86.7579ZM93.0412 10.9895C93.0412 10.7208 93.0022 10.476 92.9242 10.255C92.8505 10.0297 92.74 9.83683 92.5927 9.6765C92.4497 9.51183 92.2742 9.38617 92.0662 9.2995C91.8582 9.2085 91.622 9.163 91.3577 9.163C90.803 9.163 90.3632 9.3255 90.0382 9.6505C89.7175 9.97117 89.5182 10.4175 89.4402 10.9895H93.0412ZM93.9772 14.077C93.8342 14.2503 93.663 14.402 93.4637 14.532C93.2644 14.6577 93.0499 14.7617 92.8202 14.844C92.5949 14.9263 92.3609 14.987 92.1182 15.026C91.8755 15.0693 91.635 15.091 91.3967 15.091C90.9417 15.091 90.5214 15.0152 90.1357 14.8635C89.7544 14.7075 89.4229 14.4822 89.1412 14.1875C88.8639 13.8885 88.6472 13.5202 88.4912 13.0825C88.3352 12.6448 88.2572 12.1422 88.2572 11.5745C88.2572 11.1152 88.3265 10.6862 88.4652 10.2875C88.6082 9.88883 88.8119 9.54433 89.0762 9.254C89.3405 8.95933 89.6634 8.72967 90.0447 8.565C90.426 8.396 90.855 8.3115 91.3317 8.3115C91.726 8.3115 92.09 8.37867 92.4237 8.513C92.7617 8.643 93.052 8.83367 93.2947 9.085C93.5417 9.332 93.7345 9.63967 93.8732 10.008C94.0119 10.372 94.0812 10.788 94.0812 11.256C94.0812 11.438 94.0617 11.5593 94.0227 11.62C93.9837 11.6807 93.91 11.711 93.8017 11.711H89.4012C89.4142 12.127 89.4705 12.4888 89.5702 12.7965C89.6742 13.1042 89.8172 13.362 89.9992 13.57C90.1812 13.7737 90.3979 13.9275 90.6492 14.0315C90.9005 14.1312 91.1822 14.181 91.4942 14.181C91.7845 14.181 92.0337 14.1485 92.2417 14.0835C92.454 14.0142 92.636 13.9405 92.7877 13.8625C92.9394 13.7845 93.065 13.713 93.1647 13.648C93.2687 13.5787 93.3575 13.544 93.4312 13.544C93.5265 13.544 93.6002 13.5808 93.6522 13.6545L93.9772 14.077ZM97.4731 15.104C96.9531 15.104 96.5523 14.9588 96.2706 14.6685C95.9933 14.3782 95.8546 13.96 95.8546 13.414V9.384H95.0616C94.9923 9.384 94.9338 9.3645 94.8861 9.3255C94.8384 9.28217 94.8146 9.21717 94.8146 9.1305V8.669L95.8936 8.5325L96.1601 6.498C96.1731 6.433 96.2013 6.381 96.2446 6.342C96.2923 6.29867 96.3529 6.277 96.4266 6.277H97.0116V8.5455H98.9161V9.384H97.0116V13.336C97.0116 13.6133 97.0788 13.8192 97.2131 13.9535C97.3474 14.0878 97.5208 14.155 97.7331 14.155C97.8544 14.155 97.9584 14.1398 98.0451 14.1095C98.1361 14.0748 98.2141 14.038 98.2791 13.999C98.3441 13.96 98.3983 13.9253 98.4416 13.895C98.4893 13.8603 98.5304 13.843 98.5651 13.843C98.6258 13.843 98.6799 13.8798 98.7276 13.9535L99.0656 14.506C98.8663 14.6923 98.6258 14.8397 98.3441 14.948C98.0624 15.052 97.7721 15.104 97.4731 15.104Z" fill="#C3C3C3"/>
            <defs>
                <clipPath id="clip0_4_198">
                    <rect width="20" height="20" fill="white" transform="translate(0.499939)"/>
                </clipPath>
                <clipPath id="clip1_4_198">
                    <rect width="20" height="20" fill="white" transform="translate(0.499939)"/>
                </clipPath>
            </defs>
        </g>
    </symbol>

    <symbol id="yandex" viewBox="0 0 116 20">
        <g>
            <path fill-rule="evenodd" clip-rule="evenodd" d="M3.77983 9.9307C3.77983 8.94664 3.86303 8.32213 5.91811 6.80087C7.61949 5.54138 13.073 1.23743 13.073 1.23743V8.42209H17.2203V18.7627H5.07518C4.36275 18.7627 3.77963 18.1844 3.77963 17.4778L3.77983 9.93076V9.9307Z" fill="#3E9CDC"/>
            <path fill-rule="evenodd" clip-rule="evenodd" d="M13.073 8.422V12.585L5.45212 17.7335L15.0874 14.6246V8.422H13.073Z" fill="black" fill-opacity="0.2"/>
            <path fill-rule="evenodd" clip-rule="evenodd" d="M9.5904 8.20685C10.0361 7.68023 10.687 7.49436 11.0443 7.79173C11.4017 8.08915 11.3303 8.75719 10.8846 9.2838C10.4392 9.81035 9.78811 9.99602 9.43072 9.69859C9.07333 9.40123 9.14497 8.73333 9.5904 8.20678V8.20685Z" fill="#231F20"/>
            <path d="M35.1864 11.2885V15H33.9254V11.2885L30.5129 5.6855H31.6179C31.7306 5.6855 31.8194 5.71367 31.8844 5.77C31.9494 5.822 32.0058 5.89133 32.0534 5.978L34.1854 9.5985C34.2634 9.75017 34.3349 9.89317 34.3999 10.0275C34.4649 10.1575 34.5213 10.2897 34.5689 10.424C34.6166 10.2897 34.6708 10.1575 34.7314 10.0275C34.7921 9.89317 34.8593 9.75017 34.9329 9.5985L37.0584 5.978C37.0974 5.90433 37.1516 5.83717 37.2209 5.7765C37.2903 5.71583 37.3791 5.6855 37.4874 5.6855H38.5989L35.1864 11.2885ZM41.65 12.036C41.117 12.0533 40.662 12.0967 40.285 12.166C39.9123 12.231 39.6068 12.3177 39.3685 12.426C39.1345 12.5343 38.9633 12.6622 38.855 12.8095C38.751 12.9568 38.699 13.1215 38.699 13.3035C38.699 13.4768 38.7271 13.6263 38.7835 13.752C38.8398 13.8777 38.9156 13.9817 39.011 14.064C39.1106 14.142 39.2255 14.2005 39.3555 14.2395C39.4898 14.2742 39.6328 14.2915 39.7845 14.2915C39.9881 14.2915 40.1745 14.272 40.3435 14.233C40.5125 14.1897 40.6706 14.129 40.818 14.051C40.9696 13.973 41.1126 13.8798 41.247 13.7715C41.3856 13.6632 41.52 13.5397 41.65 13.401V12.036ZM37.9125 9.345C38.2765 8.994 38.6686 8.73183 39.089 8.5585C39.5093 8.38517 39.9751 8.2985 40.4865 8.2985C40.8548 8.2985 41.182 8.35917 41.468 8.4805C41.754 8.60183 41.9945 8.77083 42.1895 8.9875C42.3845 9.20417 42.5318 9.46633 42.6315 9.774C42.7311 10.0817 42.781 10.4197 42.781 10.788V15H42.2675C42.1548 15 42.0681 14.9827 42.0075 14.948C41.9468 14.909 41.8991 14.8353 41.8645 14.727L41.7345 14.103C41.5611 14.2633 41.3921 14.4063 41.2275 14.532C41.0628 14.6533 40.8895 14.7573 40.7075 14.844C40.5255 14.9263 40.3305 14.9892 40.1225 15.0325C39.9188 15.0802 39.6913 15.104 39.44 15.104C39.1843 15.104 38.9438 15.0693 38.7185 15C38.4931 14.9263 38.296 14.818 38.127 14.675C37.9623 14.532 37.8301 14.3522 37.7305 14.1355C37.6351 13.9145 37.5875 13.6545 37.5875 13.3555C37.5875 13.0955 37.659 12.8463 37.802 12.608C37.945 12.3653 38.1768 12.1508 38.4975 11.9645C38.8181 11.7782 39.2363 11.6265 39.752 11.5095C40.2676 11.3882 40.9003 11.3188 41.65 11.3015V10.788C41.65 10.2767 41.5395 9.891 41.3185 9.631C41.0975 9.36667 40.7746 9.2345 40.35 9.2345C40.064 9.2345 39.8235 9.27133 39.6285 9.345C39.4378 9.41433 39.271 9.4945 39.128 9.5855C38.9893 9.67217 38.868 9.75233 38.764 9.826C38.6643 9.89533 38.5646 9.93 38.465 9.93C38.387 9.93 38.3198 9.9105 38.2635 9.8715C38.2071 9.82817 38.1595 9.77617 38.1205 9.7155L37.9125 9.345ZM45.6354 9.371C45.7784 9.21067 45.9301 9.0655 46.0904 8.9355C46.2507 8.8055 46.4197 8.695 46.5974 8.604C46.7794 8.50867 46.9701 8.43717 47.1694 8.3895C47.3731 8.3375 47.5919 8.3115 47.8259 8.3115C48.1856 8.3115 48.5019 8.37217 48.7749 8.4935C49.0522 8.6105 49.2819 8.7795 49.4639 9.0005C49.6502 9.21717 49.7911 9.47933 49.8864 9.787C49.9817 10.0947 50.0294 10.4348 50.0294 10.8075V15H48.8659V10.8075C48.8659 10.3092 48.7511 9.9235 48.5214 9.6505C48.2961 9.37317 47.9516 9.2345 47.4879 9.2345C47.1456 9.2345 46.8249 9.31683 46.5259 9.4815C46.2312 9.64617 45.9582 9.86933 45.7069 10.151V15H44.5434V8.4155H45.2389C45.4036 8.4155 45.5054 8.49567 45.5444 8.656L45.6354 9.371ZM56.0824 9.982C55.8657 9.69167 55.6317 9.49017 55.3804 9.3775C55.1291 9.2605 54.8474 9.202 54.5354 9.202C53.9244 9.202 53.4542 9.42083 53.1249 9.8585C52.7956 10.2962 52.6309 10.9202 52.6309 11.7305C52.6309 12.1595 52.6677 12.5278 52.7414 12.8355C52.8151 13.1388 52.9234 13.3902 53.0664 13.5895C53.2094 13.7845 53.3849 13.9275 53.5929 14.0185C53.8009 14.1095 54.0371 14.155 54.3014 14.155C54.6827 14.155 55.0142 14.0683 55.2959 13.895C55.5819 13.7217 55.8441 13.4768 56.0824 13.1605V9.982ZM57.2394 5.4255V15H56.5504C56.3857 15 56.2817 14.9198 56.2384 14.7595L56.1344 13.96C55.8527 14.298 55.5321 14.571 55.1724 14.779C54.8127 14.987 54.3967 15.091 53.9244 15.091C53.5474 15.091 53.2051 15.0195 52.8974 14.8765C52.5897 14.7292 52.3276 14.5147 52.1109 14.233C51.8942 13.9513 51.7274 13.6003 51.6104 13.18C51.4934 12.7597 51.4349 12.2765 51.4349 11.7305C51.4349 11.2452 51.4999 10.7945 51.6299 10.3785C51.7599 9.95817 51.9462 9.59417 52.1889 9.2865C52.4316 8.97883 52.7284 8.73833 53.0794 8.565C53.4347 8.38733 53.8334 8.2985 54.2754 8.2985C54.6784 8.2985 55.0229 8.36783 55.3089 8.5065C55.5992 8.64083 55.8571 8.82933 56.0824 9.072V5.4255H57.2394ZM63.4738 10.9895C63.4738 10.7208 63.4348 10.476 63.3568 10.255C63.2832 10.0297 63.1727 9.83683 63.0253 9.6765C62.8823 9.51183 62.7068 9.38617 62.4988 9.2995C62.2908 9.2085 62.0547 9.163 61.7903 9.163C61.2357 9.163 60.7958 9.3255 60.4708 9.6505C60.1502 9.97117 59.9508 10.4175 59.8728 10.9895H63.4738ZM64.4098 14.077C64.2668 14.2503 64.0957 14.402 63.8963 14.532C63.697 14.6577 63.4825 14.7617 63.2528 14.844C63.0275 14.9263 62.7935 14.987 62.5508 15.026C62.3082 15.0693 62.0677 15.091 61.8293 15.091C61.3743 15.091 60.954 15.0152 60.5683 14.8635C60.187 14.7075 59.8555 14.4822 59.5738 14.1875C59.2965 13.8885 59.0798 13.5202 58.9238 13.0825C58.7678 12.6448 58.6898 12.1422 58.6898 11.5745C58.6898 11.1152 58.7592 10.6862 58.8978 10.2875C59.0408 9.88883 59.2445 9.54433 59.5088 9.254C59.7732 8.95933 60.096 8.72967 60.4773 8.565C60.8587 8.396 61.2877 8.3115 61.7643 8.3115C62.1587 8.3115 62.5227 8.37867 62.8563 8.513C63.1943 8.643 63.4847 8.83367 63.7273 9.085C63.9743 9.332 64.1672 9.63967 64.3058 10.008C64.4445 10.372 64.5138 10.788 64.5138 11.256C64.5138 11.438 64.4943 11.5593 64.4553 11.62C64.4163 11.6807 64.3427 11.711 64.2343 11.711H59.8338C59.8468 12.127 59.9032 12.4888 60.0028 12.7965C60.1068 13.1042 60.2498 13.362 60.4318 13.57C60.6138 13.7737 60.8305 13.9275 61.0818 14.0315C61.3332 14.1312 61.6148 14.181 61.9268 14.181C62.2172 14.181 62.4663 14.1485 62.6743 14.0835C62.8867 14.0142 63.0687 13.9405 63.2203 13.8625C63.372 13.7845 63.4977 13.713 63.5973 13.648C63.7013 13.5787 63.7902 13.544 63.8638 13.544C63.9592 13.544 64.0328 13.5808 64.0848 13.6545L64.4098 14.077ZM71.2541 15H70.1426C70.0473 15 69.9715 14.9762 69.9151 14.9285C69.8631 14.8765 69.8198 14.8202 69.7851 14.7595L68.1276 12.179C68.1103 12.2397 68.0908 12.3003 68.0691 12.361C68.0518 12.4173 68.0258 12.4693 67.9911 12.517L66.4571 14.7595C66.4138 14.8202 66.3661 14.8765 66.3141 14.9285C66.2665 14.9762 66.1993 15 66.1126 15H65.0791L67.3866 11.62L65.1701 8.4155H66.2816C66.377 8.4155 66.4463 8.43067 66.4896 8.461C66.533 8.49133 66.572 8.53467 66.6066 8.591L68.2251 11.061C68.2598 10.9353 68.314 10.814 68.3876 10.697L69.8046 8.617C69.8436 8.55633 69.8848 8.50867 69.9281 8.474C69.9758 8.435 70.0321 8.4155 70.0971 8.4155H71.1631L68.9466 11.5615L71.2541 15ZM85.6114 5.6855V15H84.5064V8.1555C84.5064 8.0645 84.5086 7.967 84.5129 7.863C84.5216 7.759 84.5302 7.65283 84.5389 7.5445L81.3409 13.3685C81.2412 13.5635 81.0896 13.661 80.8859 13.661H80.7039C80.5002 13.661 80.3486 13.5635 80.2489 13.3685L76.9859 7.5185C77.0119 7.74817 77.0249 7.9605 77.0249 8.1555V15H75.9199V5.6855H76.8494C76.9621 5.6855 77.0487 5.69633 77.1094 5.718C77.1701 5.73967 77.2286 5.80033 77.2849 5.9L80.5024 11.633C80.5544 11.737 80.6042 11.8453 80.6519 11.958C80.7039 12.0707 80.7516 12.1855 80.7949 12.3025C80.8382 12.1855 80.8837 12.0707 80.9314 11.958C80.9791 11.841 81.0311 11.7305 81.0874 11.6265L84.2464 5.9C84.2984 5.80033 84.3547 5.73967 84.4154 5.718C84.4804 5.69633 84.5692 5.6855 84.6819 5.6855H85.6114ZM90.2925 8.3115C90.7735 8.3115 91.2069 8.39167 91.5925 8.552C91.9782 8.71233 92.3075 8.93983 92.5805 9.2345C92.8535 9.52917 93.0615 9.88667 93.2045 10.307C93.3519 10.723 93.4255 11.1888 93.4255 11.7045C93.4255 12.2245 93.3519 12.6925 93.2045 13.1085C93.0615 13.5245 92.8535 13.8798 92.5805 14.1745C92.3075 14.4692 91.9782 14.6967 91.5925 14.857C91.2069 15.013 90.7735 15.091 90.2925 15.091C89.8072 15.091 89.3695 15.013 88.9795 14.857C88.5939 14.6967 88.2645 14.4692 87.9915 14.1745C87.7185 13.8798 87.5084 13.5245 87.361 13.1085C87.218 12.6925 87.1465 12.2245 87.1465 11.7045C87.1465 11.1888 87.218 10.723 87.361 10.307C87.5084 9.88667 87.7185 9.52917 87.9915 9.2345C88.2645 8.93983 88.5939 8.71233 88.9795 8.552C89.3695 8.39167 89.8072 8.3115 90.2925 8.3115ZM90.2925 14.1875C90.9425 14.1875 91.4279 13.9708 91.7485 13.5375C92.0692 13.0998 92.2295 12.491 92.2295 11.711C92.2295 10.9267 92.0692 10.3157 91.7485 9.878C91.4279 9.44033 90.9425 9.2215 90.2925 9.2215C89.9632 9.2215 89.675 9.27783 89.428 9.3905C89.1854 9.50317 88.9817 9.66567 88.817 9.878C88.6567 10.0903 88.5354 10.3525 88.453 10.6645C88.375 10.9722 88.336 11.321 88.336 11.711C88.336 12.491 88.4964 13.0998 88.817 13.5375C89.142 13.9708 89.6339 14.1875 90.2925 14.1875ZM95.985 9.371C96.128 9.21067 96.2797 9.0655 96.44 8.9355C96.6003 8.8055 96.7693 8.695 96.947 8.604C97.129 8.50867 97.3197 8.43717 97.519 8.3895C97.7227 8.3375 97.9415 8.3115 98.1755 8.3115C98.5352 8.3115 98.8515 8.37217 99.1245 8.4935C99.4018 8.6105 99.6315 8.7795 99.8135 9.0005C99.9998 9.21717 100.141 9.47933 100.236 9.787C100.331 10.0947 100.379 10.4348 100.379 10.8075V15H99.2155V10.8075C99.2155 10.3092 99.1007 9.9235 98.871 9.6505C98.6457 9.37317 98.3012 9.2345 97.8375 9.2345C97.4952 9.2345 97.1745 9.31683 96.8755 9.4815C96.5808 9.64617 96.3078 9.86933 96.0565 10.151V15H94.893V8.4155H95.5885C95.7532 8.4155 95.855 8.49567 95.894 8.656L95.985 9.371ZM106.549 10.9895C106.549 10.7208 106.51 10.476 106.432 10.255C106.358 10.0297 106.248 9.83683 106.101 9.6765C105.958 9.51183 105.782 9.38617 105.574 9.2995C105.366 9.2085 105.13 9.163 104.866 9.163C104.311 9.163 103.871 9.3255 103.546 9.6505C103.225 9.97117 103.026 10.4175 102.948 10.9895H106.549ZM107.485 14.077C107.342 14.2503 107.171 14.402 106.972 14.532C106.772 14.6577 106.558 14.7617 106.328 14.844C106.103 14.9263 105.869 14.987 105.626 15.026C105.383 15.0693 105.143 15.091 104.905 15.091C104.45 15.091 104.029 15.0152 103.644 14.8635C103.262 14.7075 102.931 14.4822 102.649 14.1875C102.372 13.8885 102.155 13.5202 101.999 13.0825C101.843 12.6448 101.765 12.1422 101.765 11.5745C101.765 11.1152 101.834 10.6862 101.973 10.2875C102.116 9.88883 102.32 9.54433 102.584 9.254C102.848 8.95933 103.171 8.72967 103.553 8.565C103.934 8.396 104.363 8.3115 104.84 8.3115C105.234 8.3115 105.598 8.37867 105.932 8.513C106.27 8.643 106.56 8.83367 106.803 9.085C107.05 9.332 107.242 9.63967 107.381 10.008C107.52 10.372 107.589 10.788 107.589 11.256C107.589 11.438 107.57 11.5593 107.531 11.62C107.492 11.6807 107.418 11.711 107.31 11.711H102.909C102.922 12.127 102.978 12.4888 103.078 12.7965C103.182 13.1042 103.325 13.362 103.507 13.57C103.689 13.7737 103.906 13.9275 104.157 14.0315C104.408 14.1312 104.69 14.181 105.002 14.181C105.292 14.181 105.542 14.1485 105.75 14.0835C105.962 14.0142 106.144 13.9405 106.296 13.8625C106.447 13.7845 106.573 13.713 106.673 13.648C106.777 13.5787 106.865 13.544 106.939 13.544C107.034 13.544 107.108 13.5808 107.16 13.6545L107.485 14.077ZM114.526 8.4155L110.854 16.9435C110.815 17.0302 110.765 17.0995 110.704 17.1515C110.648 17.2035 110.559 17.2295 110.438 17.2295H109.58L110.782 14.6165L108.065 8.4155H109.066C109.166 8.4155 109.244 8.4415 109.3 8.4935C109.361 8.54117 109.402 8.59533 109.424 8.656L111.185 12.803C111.254 12.985 111.313 13.1757 111.361 13.375C111.421 13.1713 111.486 12.9785 111.556 12.7965L113.265 8.656C113.291 8.58667 113.334 8.53033 113.395 8.487C113.46 8.43933 113.532 8.4155 113.61 8.4155H114.526Z" fill="#C3C3C3"/>
        </g>
    </symbol>

    <symbol id="web" viewBox="0 0 102 20" >
        <g>
            <g clip-path="url(#clip0_4_200)">
                <path d="M9.34077 0C10.751 0 12.0928 0.323103 13.2969 0.901077C13.4857 0.986269 13.6758 1.08823 13.864 1.19028L13.0384 1.92159L11.8007 0.646297L9.66802 2.51651L8.41214 1.17307L4.49048 4.65889L7.00126 7.39646L6.02108 8.24641L8.49822 10.984L7.51795 11.8336L11.0613 15.7274L13.1585 13.823L14.9826 15.8639C14.6211 16.136 14.2255 16.4086 13.796 16.6462C12.4886 17.3773 10.9747 17.8016 9.35814 17.8016C4.38691 17.8016 0.345546 13.8066 0.345546 8.89314C0.327991 4.01286 4.37007 0 9.34077 0ZM7.68931 8.34864L9.83937 6.44418L11.7662 8.56952L9.61567 10.4738L7.68931 8.34864ZM9.22053 12.0214L11.3531 10.1001L13.2969 12.2253L11.1467 14.1298L9.22053 12.0214ZM6.15942 4.72713L8.30886 2.82267L10.2352 4.948L8.08507 6.85238L6.15942 4.72713ZM10.0974 3.70661L11.6971 2.27842L13.1423 3.85978L11.5426 5.30484L10.0974 3.70661ZM12.9529 10.2528L14.5521 8.82456L15.9972 10.4224L14.3974 11.8516L12.9529 10.2528ZM14.3631 13.4668L15.9629 12.0382L17.4068 13.6195L15.8076 15.0644L14.3631 13.4668ZM15.0168 6.12107L16.0831 5.16879L17.0459 6.22339L15.9799 7.17531L15.0168 6.12107ZM13.6408 2.97548L14.7071 2.00651L15.6707 3.07753L14.6036 4.02972L13.6408 2.97548ZM16.3755 9.26693L17.4417 8.31474L18.422 9.36899L17.3389 10.3209L16.3755 9.26693ZM11.5768 6.90341L13.1766 5.47513L14.6211 7.05614L13.022 8.48469L11.5768 6.90341Z" fill="#3E9CDC"/>
            </g>
            <path d="M43.76 5.6855L40.8545 15H39.7235L37.364 7.8955C37.3423 7.82617 37.3207 7.7525 37.299 7.6745C37.2817 7.5965 37.2622 7.51417 37.2405 7.4275C37.2188 7.51417 37.1972 7.5965 37.1755 7.6745C37.1538 7.7525 37.1322 7.82617 37.1105 7.8955L34.738 15H33.607L30.7015 5.6855H31.748C31.8607 5.6855 31.9538 5.71367 32.0275 5.77C32.1055 5.82633 32.1553 5.89783 32.177 5.9845L34.101 12.4585C34.1313 12.5755 34.1595 12.7012 34.1855 12.8355C34.2158 12.9698 34.244 13.1128 34.27 13.2645C34.3003 13.1128 34.3307 12.9698 34.361 12.8355C34.3957 12.6968 34.4325 12.5712 34.4715 12.4585L36.662 5.9845C36.688 5.91083 36.7378 5.84367 36.8115 5.783C36.8895 5.718 36.9827 5.6855 37.091 5.6855H37.455C37.5677 5.6855 37.6587 5.71367 37.728 5.77C37.7973 5.82633 37.8493 5.89783 37.884 5.9845L40.068 12.4585C40.107 12.5712 40.1417 12.6925 40.172 12.8225C40.2067 12.9525 40.2392 13.089 40.2695 13.232C40.2912 13.089 40.315 12.9525 40.341 12.8225C40.367 12.6925 40.3952 12.5712 40.4255 12.4585L42.356 5.9845C42.3777 5.9065 42.4253 5.83717 42.499 5.7765C42.577 5.71583 42.6702 5.6855 42.7785 5.6855H43.76ZM48.5442 10.9895C48.5442 10.7208 48.5052 10.476 48.4272 10.255C48.3535 10.0297 48.243 9.83683 48.0957 9.6765C47.9527 9.51183 47.7772 9.38617 47.5692 9.2995C47.3612 9.2085 47.125 9.163 46.8607 9.163C46.306 9.163 45.8662 9.3255 45.5412 9.6505C45.2205 9.97117 45.0212 10.4175 44.9432 10.9895H48.5442ZM49.4802 14.077C49.3372 14.2503 49.166 14.402 48.9667 14.532C48.7674 14.6577 48.5529 14.7617 48.3232 14.844C48.0979 14.9263 47.8639 14.987 47.6212 15.026C47.3785 15.0693 47.138 15.091 46.8997 15.091C46.4447 15.091 46.0244 15.0152 45.6387 14.8635C45.2574 14.7075 44.9259 14.4822 44.6442 14.1875C44.3669 13.8885 44.1502 13.5202 43.9942 13.0825C43.8382 12.6448 43.7602 12.1422 43.7602 11.5745C43.7602 11.1152 43.8295 10.6862 43.9682 10.2875C44.1112 9.88883 44.3149 9.54433 44.5792 9.254C44.8435 8.95933 45.1664 8.72967 45.5477 8.565C45.929 8.396 46.358 8.3115 46.8347 8.3115C47.229 8.3115 47.593 8.37867 47.9267 8.513C48.2647 8.643 48.555 8.83367 48.7977 9.085C49.0447 9.332 49.2375 9.63967 49.3762 10.008C49.5149 10.372 49.5842 10.788 49.5842 11.256C49.5842 11.438 49.5647 11.5593 49.5257 11.62C49.4867 11.6807 49.413 11.711 49.3047 11.711H44.9042C44.9172 12.127 44.9735 12.4888 45.0732 12.7965C45.1772 13.1042 45.3202 13.362 45.5022 13.57C45.6842 13.7737 45.9009 13.9275 46.1522 14.0315C46.4035 14.1312 46.6852 14.181 46.9972 14.181C47.2875 14.181 47.5367 14.1485 47.7447 14.0835C47.957 14.0142 48.139 13.9405 48.2907 13.8625C48.4424 13.7845 48.568 13.713 48.6677 13.648C48.7717 13.5787 48.8605 13.544 48.9342 13.544C49.0295 13.544 49.1032 13.5808 49.1552 13.6545L49.4802 14.077ZM52.1689 13.414C52.3812 13.7 52.613 13.9015 52.8644 14.0185C53.12 14.1355 53.3995 14.194 53.7029 14.194C54.3225 14.194 54.797 13.9752 55.1264 13.5375C55.4557 13.0998 55.6204 12.4477 55.6204 11.581C55.6204 10.775 55.473 10.1835 55.1784 9.8065C54.888 9.42517 54.472 9.2345 53.9304 9.2345C53.5534 9.2345 53.224 9.32117 52.9424 9.4945C52.665 9.66783 52.4072 9.91267 52.1689 10.229V13.414ZM52.1689 9.3645C52.4462 9.04383 52.7582 8.78817 53.1049 8.5975C53.4559 8.40683 53.8589 8.3115 54.3139 8.3115C54.6995 8.3115 55.0462 8.38517 55.3539 8.5325C55.6659 8.67983 55.9302 8.89433 56.1469 9.176C56.3635 9.45333 56.5282 9.79133 56.6409 10.19C56.7579 10.5887 56.8164 11.0372 56.8164 11.5355C56.8164 12.0685 56.7514 12.5538 56.6214 12.9915C56.4914 13.4292 56.3029 13.804 56.0559 14.116C55.8132 14.4237 55.5164 14.6642 55.1654 14.8375C54.8144 15.0065 54.42 15.091 53.9824 15.091C53.549 15.091 53.1829 15.0108 52.8839 14.8505C52.5892 14.6858 52.3314 14.454 52.1104 14.155L52.0519 14.753C52.0172 14.9177 51.9175 15 51.7529 15H51.0054V5.4255H52.1689V9.3645ZM71.5705 5.6855V15H70.4655V8.1555C70.4655 8.0645 70.4676 7.967 70.472 7.863C70.4806 7.759 70.4893 7.65283 70.498 7.5445L67.3 13.3685C67.2003 13.5635 67.0486 13.661 66.845 13.661H66.663C66.4593 13.661 66.3076 13.5635 66.208 13.3685L62.945 7.5185C62.971 7.74817 62.984 7.9605 62.984 8.1555V15H61.879V5.6855H62.8085C62.9211 5.6855 63.0078 5.69633 63.0685 5.718C63.1291 5.73967 63.1876 5.80033 63.244 5.9L66.4615 11.633C66.5135 11.737 66.5633 11.8453 66.611 11.958C66.663 12.0707 66.7106 12.1855 66.754 12.3025C66.7973 12.1855 66.8428 12.0707 66.8905 11.958C66.9381 11.841 66.9901 11.7305 67.0465 11.6265L70.2055 5.9C70.2575 5.80033 70.3138 5.73967 70.3745 5.718C70.4395 5.69633 70.5283 5.6855 70.641 5.6855H71.5705ZM76.2516 8.3115C76.7326 8.3115 77.1659 8.39167 77.5516 8.552C77.9372 8.71233 78.2666 8.93983 78.5396 9.2345C78.8126 9.52917 79.0206 9.88667 79.1636 10.307C79.3109 10.723 79.3846 11.1888 79.3846 11.7045C79.3846 12.2245 79.3109 12.6925 79.1636 13.1085C79.0206 13.5245 78.8126 13.8798 78.5396 14.1745C78.2666 14.4692 77.9372 14.6967 77.5516 14.857C77.1659 15.013 76.7326 15.091 76.2516 15.091C75.7662 15.091 75.3286 15.013 74.9386 14.857C74.5529 14.6967 74.2236 14.4692 73.9506 14.1745C73.6776 13.8798 73.4674 13.5245 73.3201 13.1085C73.1771 12.6925 73.1056 12.2245 73.1056 11.7045C73.1056 11.1888 73.1771 10.723 73.3201 10.307C73.4674 9.88667 73.6776 9.52917 73.9506 9.2345C74.2236 8.93983 74.5529 8.71233 74.9386 8.552C75.3286 8.39167 75.7662 8.3115 76.2516 8.3115ZM76.2516 14.1875C76.9016 14.1875 77.3869 13.9708 77.7076 13.5375C78.0282 13.0998 78.1886 12.491 78.1886 11.711C78.1886 10.9267 78.0282 10.3157 77.7076 9.878C77.3869 9.44033 76.9016 9.2215 76.2516 9.2215C75.9222 9.2215 75.6341 9.27783 75.3871 9.3905C75.1444 9.50317 74.9407 9.66567 74.7761 9.878C74.6157 10.0903 74.4944 10.3525 74.4121 10.6645C74.3341 10.9722 74.2951 11.321 74.2951 11.711C74.2951 12.491 74.4554 13.0998 74.7761 13.5375C75.1011 13.9708 75.5929 14.1875 76.2516 14.1875ZM81.944 9.371C82.087 9.21067 82.2387 9.0655 82.399 8.9355C82.5594 8.8055 82.7284 8.695 82.906 8.604C83.088 8.50867 83.2787 8.43717 83.478 8.3895C83.6817 8.3375 83.9005 8.3115 84.1345 8.3115C84.4942 8.3115 84.8105 8.37217 85.0835 8.4935C85.3609 8.6105 85.5905 8.7795 85.7725 9.0005C85.9589 9.21717 86.0997 9.47933 86.195 9.787C86.2904 10.0947 86.338 10.4348 86.338 10.8075V15H85.1745V10.8075C85.1745 10.3092 85.0597 9.9235 84.83 9.6505C84.6047 9.37317 84.2602 9.2345 83.7965 9.2345C83.4542 9.2345 83.1335 9.31683 82.8345 9.4815C82.5399 9.64617 82.2669 9.86933 82.0155 10.151V15H80.852V8.4155H81.5475C81.7122 8.4155 81.814 8.49567 81.853 8.656L81.944 9.371ZM92.5081 10.9895C92.5081 10.7208 92.4691 10.476 92.3911 10.255C92.3174 10.0297 92.2069 9.83683 92.0596 9.6765C91.9166 9.51183 91.7411 9.38617 91.5331 9.2995C91.3251 9.2085 91.0889 9.163 90.8246 9.163C90.2699 9.163 89.8301 9.3255 89.5051 9.6505C89.1844 9.97117 88.9851 10.4175 88.9071 10.9895H92.5081ZM93.4441 14.077C93.3011 14.2503 93.1299 14.402 92.9306 14.532C92.7312 14.6577 92.5167 14.7617 92.2871 14.844C92.0617 14.9263 91.8277 14.987 91.5851 15.026C91.3424 15.0693 91.1019 15.091 90.8636 15.091C90.4086 15.091 89.9882 15.0152 89.6026 14.8635C89.2212 14.7075 88.8897 14.4822 88.6081 14.1875C88.3307 13.8885 88.1141 13.5202 87.9581 13.0825C87.8021 12.6448 87.7241 12.1422 87.7241 11.5745C87.7241 11.1152 87.7934 10.6862 87.9321 10.2875C88.0751 9.88883 88.2787 9.54433 88.5431 9.254C88.8074 8.95933 89.1302 8.72967 89.5116 8.565C89.8929 8.396 90.3219 8.3115 90.7986 8.3115C91.1929 8.3115 91.5569 8.37867 91.8906 8.513C92.2286 8.643 92.5189 8.83367 92.7616 9.085C93.0086 9.332 93.2014 9.63967 93.3401 10.008C93.4787 10.372 93.5481 10.788 93.5481 11.256C93.5481 11.438 93.5286 11.5593 93.4896 11.62C93.4506 11.6807 93.3769 11.711 93.2686 11.711H88.8681C88.8811 12.127 88.9374 12.4888 89.0371 12.7965C89.1411 13.1042 89.2841 13.362 89.4661 13.57C89.6481 13.7737 89.8647 13.9275 90.1161 14.0315C90.3674 14.1312 90.6491 14.181 90.9611 14.181C91.2514 14.181 91.5006 14.1485 91.7086 14.0835C91.9209 14.0142 92.1029 13.9405 92.2546 13.8625C92.4062 13.7845 92.5319 13.713 92.6316 13.648C92.7356 13.5787 92.8244 13.544 92.8981 13.544C92.9934 13.544 93.0671 13.5808 93.1191 13.6545L93.4441 14.077ZM100.485 8.4155L96.8127 16.9435C96.7737 17.0302 96.7239 17.0995 96.6632 17.1515C96.6069 17.2035 96.518 17.2295 96.3967 17.2295H95.5387L96.7412 14.6165L94.0242 8.4155H95.0252C95.1249 8.4155 95.2029 8.4415 95.2592 8.4935C95.3199 8.54117 95.361 8.59533 95.3827 8.656L97.1442 12.803C97.2135 12.985 97.272 13.1757 97.3197 13.375C97.3804 13.1713 97.4454 12.9785 97.5147 12.7965L99.2242 8.656C99.2502 8.58667 99.2935 8.53033 99.3542 8.487C99.4192 8.43933 99.4907 8.4155 99.5687 8.4155H100.485Z" fill="#C3C3C3"/>
            <defs>
                <clipPath id="clip0_4_200">
                    <rect width="20" height="20" fill="white" transform="translate(0.5)"/>
                </clipPath>
            </defs>
        </g>
    </symbol>
</svg>